<svg xmlns="http://www.w3.org/2000/svg" xmlns:xlink="http://www.w3.org/1999/xlink" zoomAndPan="magnify" viewBox="0 0 45 44.999999" preserveAspectRatio="xMidYMid meet" version="1.0"><defs><clipPath id="1a86a2d797"><path d="M 20.800781 12.371094 L 44.941406 12.371094 L 44.941406 40.472656 L 20.800781 40.472656 Z M 20.800781 12.371094 " clip-rule="nonzero"/></clipPath><clipPath id="af816305b6"><path d="M 0 4.5 L 30 4.5 L 30 32 L 0 32 Z M 0 4.5 " clip-rule="nonzero"/></clipPath></defs><rect x="-4.5" width="54" fill="#ffffff" y="-4.5" height="53.999999" fill-opacity="0"/><rect x="-4.5" width="54" fill="#000000" y="-4.5" height="53.999999" fill-opacity="0"/><g clip-path="url(#1a86a2d797)"><path fill="#ffffff" d="M 40.191406 21.585938 C 40.039062 21.789062 39.746094 21.839844 39.53125 21.695312 C 37.625 20.402344 35.574219 19.570312 33.308594 19.355469 C 32.480469 19.277344 31.609375 19.359375 30.792969 19.535156 C 30.027344 19.695312 29.640625 20.46875 29.96875 21.097656 C 30.152344 21.449219 30.558594 21.792969 30.9375 21.917969 C 31.839844 22.214844 32.78125 22.417969 33.71875 22.59375 C 35.828125 22.984375 37.949219 23.335938 39.925781 24.207031 C 40.777344 24.582031 41.617188 25.042969 42.359375 25.601562 C 44.515625 27.222656 45.152344 29.488281 44.878906 32.074219 C 44.488281 35.824219 42.445312 38.394531 38.917969 39.484375 C 33.191406 41.25 27.640625 40.6875 22.46875 37.496094 C 21.960938 37.183594 21.5 36.800781 21.007812 36.414062 C 20.804688 36.253906 20.761719 35.960938 20.910156 35.75 C 22.160156 33.957031 23.382812 32.203125 24.554688 30.523438 C 24.703125 30.308594 24.996094 30.253906 25.214844 30.394531 C 26.296875 31.082031 27.320312 31.804688 28.429688 32.339844 C 30.441406 33.316406 32.59375 33.722656 34.835938 33.371094 C 35.214844 33.308594 35.597656 33.171875 35.929688 32.980469 C 36.894531 32.433594 36.925781 31.394531 35.988281 30.808594 C 35.605469 30.566406 35.164062 30.371094 34.726562 30.269531 C 33.050781 29.886719 31.363281 29.570312 29.6875 29.195312 C 28.019531 28.820312 26.40625 28.296875 24.945312 27.378906 C 23.710938 26.605469 22.734375 25.601562 22.175781 24.238281 C 19.699219 19.828125 24.503906 12.375 31.410156 12.421875 C 35.707031 12.375 39.488281 12.921875 43.035156 15.230469 C 43.21875 15.351562 43.597656 15.632812 43.894531 15.855469 C 44.109375 16.019531 44.152344 16.324219 43.988281 16.539062 C 42.726562 18.214844 41.46875 19.886719 40.191406 21.585938 " fill-opacity="1" fill-rule="nonzero"/></g><g clip-path="url(#af816305b6)"><path fill="#ffffff" d="M 19.972656 30.703125 C 20.5 29.265625 21.027344 27.828125 21.558594 26.390625 C 20.890625 25.753906 20.351562 25.007812 19.984375 24.113281 C 17.734375 20.101562 21.179688 13.710938 26.835938 12.035156 C 27.660156 9.78125 28.488281 7.53125 29.316406 5.28125 C 29.449219 4.917969 29.183594 4.53125 28.796875 4.53125 L 20.738281 4.53125 C 20.496094 4.53125 20.28125 4.6875 20.210938 4.917969 C 18.382812 10.625 16.566406 16.308594 14.703125 22.132812 C 14.585938 21.785156 14.515625 21.589844 14.453125 21.394531 C 12.695312 15.902344 10.9375 10.414062 9.195312 4.917969 C 9.121094 4.6875 8.90625 4.53125 8.664062 4.53125 L 0.597656 4.53125 C 0.210938 4.53125 -0.0585938 4.917969 0.078125 5.28125 C 3.183594 13.730469 6.292969 22.183594 9.390625 30.636719 C 9.503906 30.941406 9.65625 31.03125 9.96875 31.03125 C 12.167969 31.015625 14.367188 31.023438 16.566406 31.023438 C 16.609375 31.023438 16.652344 31.023438 16.695312 31.023438 C 16.769531 31.023438 16.847656 31.023438 16.929688 31.023438 C 17.011719 31.023438 17.097656 31.023438 17.195312 31.023438 L 19.515625 31.023438 C 19.71875 31.023438 19.898438 30.894531 19.972656 30.703125 " fill-opacity="1" fill-rule="nonzero"/></g></svg>