<svg xmlns="http://www.w3.org/2000/svg" xmlns:xlink="http://www.w3.org/1999/xlink" width="60" zoomAndPan="magnify" viewBox="0 0 45 44.999999" height="60" preserveAspectRatio="xMidYMid meet" version="1.0"><defs><clipPath id="bb04294b0f"><path d="M 3.921875 0.527344 L 41.421875 0.527344 L 41.421875 44.746094 L 3.921875 44.746094 Z M 3.921875 0.527344 " clip-rule="nonzero"/></clipPath></defs><rect x="-4.5" width="54" fill="#ffffff" y="-4.5" height="53.999999" fill-opacity="0"/><rect x="-4.5" width="54" fill="#000000" y="-4.5" height="53.999999" fill-opacity="0"/><g clip-path="url(#bb04294b0f)"><path fill="#ffffff" d="M 41.011719 6.9375 C 40.457031 6.3125 39.539062 6.476562 38.796875 6.308594 C 33.4375 5.429688 28.398438 3.246094 23.585938 0.800781 C 23.355469 0.691406 23.117188 0.597656 22.878906 0.515625 L 22.53125 0.515625 C 21.695312 0.765625 20.957031 1.238281 20.167969 1.601562 C 15.949219 3.667969 11.523438 5.445312 6.871094 6.261719 C 6.199219 6.394531 5.503906 6.382812 4.847656 6.578125 C 4.328125 6.808594 3.945312 7.351562 3.976562 7.925781 C 3.921875 11.121094 4.039062 14.320312 4.289062 17.503906 C 4.652344 21.558594 5.238281 25.636719 6.605469 29.492188 C 7.269531 31.277344 8.117188 33.035156 9.386719 34.476562 C 12.859375 38.570312 17.171875 41.925781 21.894531 44.480469 C 22.09375 44.582031 22.304688 44.660156 22.519531 44.726562 L 22.820312 44.726562 C 23.664062 44.488281 24.359375 43.929688 25.128906 43.535156 C 28.785156 41.378906 32.132812 38.695312 35.011719 35.582031 C 35.882812 34.601562 36.777344 33.621094 37.402344 32.457031 C 38.851562 29.894531 39.613281 27.015625 40.1875 24.148438 C 41.171875 18.921875 41.425781 13.589844 41.394531 8.28125 C 41.414062 7.808594 41.375 7.289062 41.011719 6.9375 Z M 38.980469 22.976562 C 38.390625 26.195312 37.621094 29.472656 35.886719 32.289062 C 34.34375 34.515625 32.355469 36.390625 30.320312 38.160156 C 27.972656 40.15625 25.390625 41.867188 22.683594 43.339844 C 17.933594 40.769531 13.582031 37.390625 10.144531 33.214844 C 8.375 30.960938 7.539062 28.152344 6.875 25.410156 C 5.597656 19.660156 5.292969 13.734375 5.375 7.859375 C 11.507812 7.171875 17.234375 4.65625 22.683594 1.90625 C 28.132812 4.660156 33.867188 7.167969 40 7.855469 C 40.074219 12.910156 39.832031 17.984375 38.980469 22.976562 Z M 38.980469 22.976562 " fill-opacity="1" fill-rule="nonzero"/></g><path fill="#ffffff" d="M 8.128906 10.257812 C 8.234375 15.699219 8.546875 21.195312 9.988281 26.464844 C 10.554688 28.40625 11.28125 30.382812 12.671875 31.898438 C 15.472656 35.234375 18.945312 37.953125 22.6875 40.167969 C 26.664062 37.8125 30.339844 34.871094 33.230469 31.25 C 34.601562 29.378906 35.25 27.105469 35.785156 24.878906 C 36.863281 20.089844 37.15625 15.160156 37.234375 10.261719 C 32.140625 9.28125 27.308594 7.304688 22.683594 5.003906 C 18.058594 7.304688 13.226562 9.285156 8.128906 10.257812 Z M 8.128906 10.257812 " fill-opacity="1" fill-rule="nonzero"/></svg>