<svg xmlns="http://www.w3.org/2000/svg" xmlns:xlink="http://www.w3.org/1999/xlink" width="60" zoomAndPan="magnify" viewBox="0 0 45 42" height="56" preserveAspectRatio="xMidYMid meet" version="1.0"><defs><clipPath id="e3fccef682"><path d="M 0.523438 0 L 44.476562 0 L 44.476562 41.023438 L 0.523438 41.023438 Z M 0.523438 0 " clip-rule="nonzero"/></clipPath><clipPath id="30274658fb"><path d="M 0.523438 0.253906 L 44.476562 0.253906 L 44.476562 40.535156 L 0.523438 40.535156 Z M 0.523438 0.253906 " clip-rule="nonzero"/></clipPath><clipPath id="7f78c67569"><path d="M 40.722656 11.253906 L 41.121094 0.246094 L 30.046875 0.640625 L 22.496094 8.144531 L 14.945312 0.640625 L 3.886719 0.246094 L 4.269531 11.253906 L 11.820312 18.761719 L 6.300781 24.246094 L 5.082031 23.035156 L 3.707031 24.402344 L 4.910156 25.613281 L 8.183594 28.867188 L 3.1875 33.832031 L 1.984375 32.632812 L 0.613281 34.003906 L 1.832031 35.203125 L 5.972656 39.320312 L 7.179688 40.53125 L 8.558594 39.160156 L 7.339844 37.960938 L 12.335938 32.996094 L 15.605469 36.25 L 16.8125 37.449219 L 18.1875 36.078125 L 16.972656 34.878906 L 22.496094 29.386719 L 28.027344 34.867188 L 26.808594 36.066406 L 28.1875 37.4375 L 32.664062 32.988281 L 37.660156 37.953125 L 36.453125 39.148438 L 37.832031 40.519531 L 39.035156 39.308594 L 43.175781 35.195312 L 44.394531 33.996094 L 43.019531 32.625 L 41.8125 33.824219 L 36.816406 28.859375 L 41.292969 24.417969 L 39.914062 23.046875 L 38.695312 24.257812 L 33.179688 18.753906 Z M 6.199219 10.414062 L 5.90625 2.253906 L 14.121094 2.546875 L 21.125 9.507812 L 17.851562 12.761719 L 10.925781 5.871094 L 9.546875 7.242188 L 16.472656 14.128906 L 13.203125 17.382812 Z M 5.957031 36.5625 L 4.578125 35.195312 L 9.574219 30.230469 L 10.953125 31.601562 Z M 13.707031 31.601562 L 13 30.894531 L 12.328125 30.230469 L 35.46875 7.226562 L 34.089844 5.855469 L 26.464844 13.445312 L 21.804688 18.066406 L 10.941406 28.867188 L 7.679688 25.613281 L 18.542969 14.816406 L 23.878906 9.507812 L 30.882812 2.546875 L 39.101562 2.253906 L 38.800781 10.414062 L 15.597656 33.488281 Z M 27.164062 24.746094 L 32.6875 30.238281 L 29.40625 33.492188 L 23.878906 27.996094 Z M 40.4375 35.203125 L 39.4375 36.199219 L 39.046875 36.5625 L 34.054688 31.601562 L 35.429688 30.230469 Z M 37.339844 25.613281 L 34.066406 28.867188 L 28.527344 23.375 L 31.792969 20.125 Z M 37.339844 25.613281 " clip-rule="nonzero"/></clipPath></defs><g clip-path="url(#e3fccef682)"><path fill="#ffffff" d="M 0.523438 0 L 44.476562 0 L 44.476562 48.347656 L 0.523438 48.347656 Z M 0.523438 0 " fill-opacity="0" fill-rule="nonzero"/><path fill="#ffffff" d="M 0.523438 0 L 44.476562 0 L 44.476562 41.023438 L 0.523438 41.023438 Z M 0.523438 0 " fill-opacity="0" fill-rule="nonzero"/></g><g clip-path="url(#30274658fb)"><g clip-path="url(#7f78c67569)"><path fill="#dd2c2c" d="M 0.613281 0.253906 L 0.613281 40.53125 L 44.394531 40.53125 L 44.394531 0.253906 Z M 0.613281 0.253906 " fill-opacity="1" fill-rule="nonzero"/></g></g></svg>