<svg xmlns="http://www.w3.org/2000/svg" xmlns:xlink="http://www.w3.org/1999/xlink" zoomAndPan="magnify" viewBox="0 0 45 44.999999" preserveAspectRatio="xMidYMid meet" version="1.0"><defs><clipPath id="bda63547e4"><path d="M 0 1.757812 L 45 1.757812 L 45 43 L 0 43 Z M 0 1.757812 " clip-rule="nonzero"/></clipPath><clipPath id="f8639c150c"><path d="M 41.160156 13.023438 L 41.566406 1.75 L 30.226562 2.152344 L 22.496094 9.839844 L 14.765625 2.152344 L 3.441406 1.75 L 3.835938 13.023438 L 11.566406 20.707031 L 5.914062 26.320312 L 4.667969 25.082031 L 3.257812 26.484375 L 4.492188 27.722656 L 7.839844 31.054688 L 2.730469 36.136719 L 1.496094 34.910156 L 0.09375 36.3125 L 1.339844 37.542969 L 5.578125 41.753906 L 6.8125 42.996094 L 8.226562 41.59375 L 6.980469 40.363281 L 12.09375 35.28125 L 15.441406 38.613281 L 16.675781 39.839844 L 18.085938 38.4375 L 16.839844 37.210938 L 22.496094 31.585938 L 28.160156 37.199219 L 26.910156 38.425781 L 28.324219 39.828125 L 32.90625 35.273438 L 38.019531 40.355469 L 36.785156 41.582031 L 38.195312 42.984375 L 39.429688 41.746094 L 43.667969 37.53125 L 44.917969 36.304688 L 43.507812 34.902344 L 42.273438 36.128906 L 37.160156 31.046875 L 41.738281 26.496094 L 40.328125 25.09375 L 39.082031 26.332031 L 33.433594 20.699219 Z M 5.8125 12.160156 L 5.511719 3.808594 L 13.921875 4.109375 L 21.089844 11.234375 L 17.742188 14.5625 L 10.648438 7.511719 L 9.238281 8.914062 L 16.332031 15.96875 L 12.980469 19.296875 Z M 5.5625 38.933594 L 4.152344 37.535156 L 9.265625 32.449219 L 10.675781 33.851562 Z M 13.496094 33.851562 L 12.773438 33.132812 L 12.085938 32.449219 L 35.777344 8.898438 L 34.367188 7.496094 L 26.558594 15.265625 L 21.789062 19.996094 L 10.667969 31.054688 L 7.324219 27.722656 L 18.449219 16.667969 L 23.910156 11.234375 L 31.082031 4.109375 L 39.496094 3.808594 L 39.191406 12.160156 L 15.433594 35.785156 Z M 27.277344 26.835938 L 32.929688 32.457031 L 29.570312 35.789062 L 23.910156 30.164062 Z M 40.867188 37.542969 L 39.839844 38.558594 L 39.441406 38.933594 L 34.332031 33.851562 L 35.738281 32.449219 Z M 37.691406 27.726562 L 34.34375 31.054688 L 28.671875 25.429688 L 32.015625 22.101562 Z M 37.691406 27.726562 " clip-rule="nonzero"/></clipPath></defs><rect x="-4.5" fill="#ffffff" y="-4.5" fill-opacity="1"/><rect x="-4.5" width="54" fill="#000000" y="-4.5" height="53.999999" fill-opacity="0"/><g clip-path="url(#bda63547e4)"><g clip-path="url(#f8639c150c)"><path fill="#ffffff" d="M 0.09375 1.757812 L 0.09375 42.996094 L 44.917969 42.996094 L 44.917969 1.757812 Z M 0.09375 1.757812 " fill-opacity="1" fill-rule="nonzero"/></g></g></svg>