<svg xmlns="http://www.w3.org/2000/svg" xmlns:xlink="http://www.w3.org/1999/xlink" width="62" zoomAndPan="magnify" viewBox="0 0 46.5 36.000001" height="48" preserveAspectRatio="xMidYMid meet" version="1.0"><defs><clipPath id="3c5485d8b2"><path d="M 21.578125 7.742188 L 45.316406 7.742188 L 45.316406 35.027344 L 21.578125 35.027344 Z M 21.578125 7.742188 " clip-rule="nonzero"/></clipPath><clipPath id="b4917c70ad"><path d="M 1.074219 0 L 30 0 L 30 27 L 1.074219 27 Z M 1.074219 0 " clip-rule="nonzero"/></clipPath></defs><g clip-path="url(#3c5485d8b2)"><path fill="#e8bb19" d="M 40.648438 16.800781 C 40.496094 17.003906 40.210938 17.050781 40 16.910156 C 38.121094 15.640625 36.109375 14.820312 33.882812 14.609375 C 33.066406 14.53125 32.207031 14.613281 31.40625 14.785156 C 30.652344 14.945312 30.273438 15.707031 30.59375 16.324219 C 30.777344 16.671875 31.175781 17.007812 31.546875 17.128906 C 32.433594 17.421875 33.359375 17.621094 34.28125 17.792969 C 36.355469 18.175781 38.445312 18.523438 40.386719 19.382812 C 41.226562 19.75 42.050781 20.203125 42.78125 20.75 C 44.902344 22.34375 45.527344 24.574219 45.257812 27.117188 C 44.871094 30.804688 42.863281 33.332031 39.394531 34.402344 C 33.765625 36.140625 28.308594 35.589844 23.21875 32.449219 C 22.722656 32.144531 22.265625 31.765625 21.78125 31.382812 C 21.582031 31.226562 21.539062 30.941406 21.683594 30.730469 C 22.914062 28.96875 24.117188 27.242188 25.269531 25.589844 C 25.417969 25.382812 25.703125 25.324219 25.921875 25.464844 C 26.984375 26.140625 27.988281 26.851562 29.082031 27.378906 C 31.058594 28.335938 33.175781 28.738281 35.382812 28.390625 C 35.753906 28.332031 36.128906 28.195312 36.457031 28.007812 C 37.40625 27.46875 37.4375 26.449219 36.515625 25.871094 C 36.136719 25.636719 35.707031 25.441406 35.273438 25.34375 C 33.625 24.96875 31.964844 24.652344 30.316406 24.285156 C 28.679688 23.917969 27.089844 23.402344 25.652344 22.5 C 24.441406 21.742188 23.480469 20.753906 22.929688 19.414062 C 20.496094 15.074219 25.222656 7.746094 32.011719 7.792969 C 36.238281 7.746094 39.957031 8.28125 43.445312 10.550781 C 43.625 10.671875 44 10.949219 44.292969 11.167969 C 44.5 11.328125 44.542969 11.628906 44.382812 11.839844 C 43.144531 13.488281 41.90625 15.132812 40.648438 16.800781 " fill-opacity="1" fill-rule="nonzero"/></g><g clip-path="url(#b4917c70ad)"><path fill="#e8bb19" d="M 20.761719 25.769531 C 21.28125 24.355469 21.800781 22.941406 22.324219 21.527344 C 21.667969 20.902344 21.136719 20.167969 20.777344 19.289062 C 18.5625 15.339844 21.953125 9.058594 27.511719 7.410156 C 28.328125 5.195312 29.140625 2.980469 29.953125 0.765625 C 30.085938 0.410156 29.820312 0.03125 29.441406 0.03125 L 21.515625 0.03125 C 21.28125 0.03125 21.070312 0.183594 20.996094 0.410156 C 19.203125 6.023438 17.414062 11.613281 15.582031 17.339844 C 15.464844 16.996094 15.398438 16.804688 15.335938 16.613281 C 13.609375 11.214844 11.878906 5.816406 10.164062 0.410156 C 10.09375 0.183594 9.882812 0.03125 9.644531 0.03125 L 1.710938 0.03125 C 1.332031 0.03125 1.066406 0.410156 1.199219 0.765625 C 4.253906 9.078125 7.3125 17.390625 10.359375 25.703125 C 10.46875 26.003906 10.621094 26.09375 10.929688 26.089844 C 13.089844 26.078125 15.25 26.085938 17.414062 26.085938 C 17.457031 26.085938 17.5 26.085938 17.542969 26.085938 C 17.617188 26.085938 17.691406 26.085938 17.773438 26.085938 C 17.851562 26.085938 17.9375 26.085938 18.03125 26.085938 L 20.3125 26.085938 C 20.515625 26.085938 20.691406 25.960938 20.761719 25.769531 " fill-opacity="1" fill-rule="nonzero"/></g></svg>