<svg xmlns="http://www.w3.org/2000/svg" xmlns:xlink="http://www.w3.org/1999/xlink" width="50" zoomAndPan="magnify" viewBox="0 0 37.5 44.999999" height="60" preserveAspectRatio="xMidYMid meet" version="1.0"><defs><clipPath id="4d486c7385"><path d="M 0.171875 0.820312 L 37.007812 0.820312 L 37.007812 44.703125 L 0.171875 44.703125 Z M 0.171875 0.820312 " clip-rule="nonzero"/></clipPath></defs><g clip-path="url(#4d486c7385)"><path fill="#3f70d1" d="M 37.261719 7.234375 C 36.707031 6.609375 35.789062 6.773438 35.046875 6.605469 C 29.6875 5.726562 24.648438 3.542969 19.835938 1.097656 C 19.605469 0.988281 19.367188 0.894531 19.128906 0.8125 L 18.78125 0.8125 C 17.945312 1.0625 17.207031 1.535156 16.417969 1.898438 C 12.199219 3.964844 7.773438 5.742188 3.121094 6.554688 C 2.449219 6.691406 1.753906 6.679688 1.097656 6.875 C 0.578125 7.105469 0.195312 7.644531 0.226562 8.222656 C 0.171875 11.417969 0.289062 14.617188 0.539062 17.800781 C 0.902344 21.855469 1.488281 25.933594 2.855469 29.785156 C 3.519531 31.574219 4.367188 33.332031 5.636719 34.773438 C 9.109375 38.867188 13.421875 42.222656 18.144531 44.777344 C 18.34375 44.875 18.554688 44.957031 18.769531 45.019531 L 19.070312 45.019531 C 19.914062 44.785156 20.609375 44.226562 21.378906 43.832031 C 25.035156 41.675781 28.382812 38.992188 31.261719 35.878906 C 32.132812 34.898438 33.027344 33.914062 33.652344 32.753906 C 35.101562 30.191406 35.863281 27.3125 36.4375 24.445312 C 37.421875 19.21875 37.675781 13.886719 37.644531 8.578125 C 37.664062 8.105469 37.625 7.585938 37.261719 7.234375 Z M 35.230469 23.269531 C 34.640625 26.488281 33.871094 29.765625 32.136719 32.585938 C 30.59375 34.808594 28.605469 36.683594 26.570312 38.457031 C 24.222656 40.453125 21.640625 42.160156 18.933594 43.632812 C 14.183594 41.066406 9.832031 37.6875 6.394531 33.511719 C 4.625 31.257812 3.789062 28.449219 3.125 25.707031 C 1.847656 19.957031 1.542969 14.03125 1.625 8.15625 C 7.757812 7.464844 13.484375 4.953125 18.933594 2.203125 C 24.382812 4.957031 30.117188 7.464844 36.25 8.152344 C 36.324219 13.207031 36.082031 18.28125 35.230469 23.269531 Z M 35.230469 23.269531 " fill-opacity="1" fill-rule="nonzero"/></g><path fill="#3f70d1" d="M 4.378906 10.554688 C 4.484375 15.992188 4.796875 21.492188 6.238281 26.761719 C 6.804688 28.703125 7.53125 30.675781 8.921875 32.195312 C 11.722656 35.53125 15.195312 38.25 18.9375 40.464844 C 22.914062 38.109375 26.589844 35.167969 29.480469 31.546875 C 30.851562 29.671875 31.5 27.402344 32.035156 25.175781 C 33.113281 20.386719 33.40625 15.453125 33.484375 10.558594 C 28.390625 9.578125 23.558594 7.601562 18.933594 5.300781 C 14.308594 7.601562 9.476562 9.578125 4.378906 10.554688 Z M 4.378906 10.554688 " fill-opacity="1" fill-rule="nonzero"/></svg>